solid Knob metal
facet normal 1.0 -0.0 -0.0
  outer loop
    vertex -22.43662152062099 1.452901870500871 -0.9999999999999999
    vertex -22.43662152062099 -0.04709812949912845 3.9999999999999996
    vertex -22.43662152062099 -0.04709812949912845 -0.9999999999999999
  endloop
endfacet
facet normal 1.0 -0.0 -0.0
  outer loop
    vertex -22.43662152062099 -0.04709812949912845 3.9999999999999996
    vertex -22.43662152062099 1.452901870500871 -0.9999999999999999
    vertex -22.43662152062099 1.452901870500871 3.9999999999999996
  endloop
endfacet
facet normal -0.24348365667448735 0.9699045007298017 -0.0009840713869330511
  outer loop
    vertex -23.136621520620988 2.072517112771531 4.999999999999999
    vertex -22.836611231588083 2.14275838869356 -0.9999999999999999
    vertex -23.13662152062099 2.072517112771534 -0.9999999999999999
  endloop
endfacet
facet normal -0.24348365667448735 0.9699045007298017 -0.0009840713869330511
  outer loop
    vertex -22.836611231588083 2.14275838869356 -0.9999999999999999
    vertex -23.136621520620988 2.072517112771531 4.999999999999999
    vertex -22.836611231588083 2.14275838869356 -3.1307917175958904e-31
  endloop
endfacet
facet normal -0.24348365667448735 0.9699045007298017 -0.0009840713869330511
  outer loop
    vertex -22.836611231588083 2.14275838869356 -3.1307917175958904e-31
    vertex -23.136621520620988 2.072517112771531 4.999999999999999
    vertex -22.836621520620987 2.152901870500868 4.999999999999999
  endloop
endfacet
facet normal -0.6087614290087229 0.7933533402912334 5.91138005298444e-16
  outer loop
    vertex -23.26088558933292 1.9771659392127963 4.999999999999999
    vertex -23.13662152062099 2.072517112771534 -0.9999999999999999
    vertex -23.26088558933292 1.9771659392127987 -0.9999999999999999
  endloop
endfacet
facet normal -0.6087614290087229 0.7933533402912334 5.91138005298444e-16
  outer loop
    vertex -23.13662152062099 2.072517112771534 -0.9999999999999999
    vertex -23.26088558933292 1.9771659392127963 4.999999999999999
    vertex -23.136621520620988 2.072517112771531 4.999999999999999
  endloop
endfacet
facet normal -0.7933533402912357 0.60876142900872 5.242680351811983e-16
  outer loop
    vertex -23.26088558933292 1.9771659392127963 4.999999999999999
    vertex -23.356236762891655 1.8529018705008697 -0.9999999999999999
    vertex -23.35623676289165 1.8529018705008673 4.999999999999999
  endloop
endfacet
facet normal -0.7933533402912357 0.60876142900872 5.242680351811983e-16
  outer loop
    vertex -23.356236762891655 1.8529018705008697 -0.9999999999999999
    vertex -23.26088558933292 1.9771659392127963 4.999999999999999
    vertex -23.26088558933292 1.9771659392127987 -0.9999999999999999
  endloop
endfacet
facet normal -0.9659258262890688 0.2588190451025196 6.314726072488264e-16
  outer loop
    vertex -23.35623676289165 1.8529018705008673 4.999999999999999
    vertex -23.436621520620992 1.5529018705008686 -0.9999999999999999
    vertex -23.43662152062099 1.5529018705008677 4.999999999999999
  endloop
endfacet
facet normal -0.9659258262890688 0.2588190451025196 6.314726072488264e-16
  outer loop
    vertex -23.436621520620992 1.5529018705008686 -0.9999999999999999
    vertex -23.35623676289165 1.8529018705008673 4.999999999999999
    vertex -23.356236762891655 1.8529018705008697 -0.9999999999999999
  endloop
endfacet
facet normal -1.0 -8.294019066317366e-16 2.8199664825478967e-16
  outer loop
    vertex -23.43662152062099 1.5529018705008677 4.999999999999999
    vertex -23.43662152062099 -0.14709812949912826 -0.9999999999999999
    vertex -23.43662152062099 -0.14709812949912848 4.999999999999999
  endloop
endfacet
facet normal -1.0 -8.294019066317366e-16 2.8199664825478967e-16
  outer loop
    vertex -23.43662152062099 -0.14709812949912826 -0.9999999999999999
    vertex -23.43662152062099 1.5529018705008677 4.999999999999999
    vertex -23.436621520620992 1.5529018705008686 -0.9999999999999999
  endloop
endfacet
facet normal -0.9659258262890685 -0.25881904510252013 -1.9552292808835413e-17
  outer loop
    vertex -23.43662152062099 -0.14709812949912848 4.999999999999999
    vertex -23.35623676289165 -0.4470981294991279 -0.9999999999999999
    vertex -23.35623676289165 -0.4470981294991284 4.999999999999999
  endloop
endfacet
facet normal -0.9659258262890685 -0.25881904510252013 -1.9552292808835413e-17
  outer loop
    vertex -23.35623676289165 -0.4470981294991279 -0.9999999999999999
    vertex -23.43662152062099 -0.14709812949912848 4.999999999999999
    vertex -23.43662152062099 -0.14709812949912826 -0.9999999999999999
  endloop
endfacet
facet normal -0.608761429008717 -0.793353340291238 -2.16425768364393e-17
  outer loop
    vertex -23.136621520620988 -0.6667133717697915 4.999999999999999
    vertex -23.26088558933292 -0.5713621982110568 -0.9999999999999999
    vertex -23.136621520620988 -0.6667133717697914 -0.9999999999999999
  endloop
endfacet
facet normal -0.608761429008717 -0.793353340291238 -2.16425768364393e-17
  outer loop
    vertex -23.26088558933292 -0.5713621982110568 -0.9999999999999999
    vertex -23.136621520620988 -0.6667133717697915 4.999999999999999
    vertex -23.26088558933292 -0.5713621982110569 4.999999999999999
  endloop
endfacet
facet normal -0.7933533402912397 -0.6087614290087148 -3.7472054616633354e-17
  outer loop
    vertex -23.35623676289165 -0.4470981294991284 4.999999999999999
    vertex -23.26088558933292 -0.5713621982110568 -0.9999999999999999
    vertex -23.26088558933292 -0.5713621982110569 4.999999999999999
  endloop
endfacet
facet normal -0.7933533402912397 -0.6087614290087148 -3.7472054616633354e-17
  outer loop
    vertex -23.26088558933292 -0.5713621982110568 -0.9999999999999999
    vertex -23.35623676289165 -0.4470981294991284 4.999999999999999
    vertex -23.35623676289165 -0.4470981294991279 -0.9999999999999999
  endloop
endfacet
facet normal -0.25881904510252207 -0.965925826289068 2.499903292759618e-17
  outer loop
    vertex -22.836621520620987 -0.7470981294991283 4.999999999999999
    vertex -23.136621520620988 -0.6667133717697914 -0.9999999999999999
    vertex -22.836621520620987 -0.7470981294991288 -0.9999999999999999
  endloop
endfacet
facet normal -0.25881904510252207 -0.965925826289068 2.499903292759618e-17
  outer loop
    vertex -23.136621520620988 -0.6667133717697914 -0.9999999999999999
    vertex -22.836621520620987 -0.7470981294991283 4.999999999999999
    vertex -23.136621520620988 -0.6667133717697915 4.999999999999999
  endloop
endfacet
facet normal 0.0 -1.0 0.0
  outer loop
    vertex -3.8366215206209815 1.452901870500871 -6.261583435191781e-31
    vertex -22.43662152062099 1.452901870500871 -0.9999999999999999
    vertex -3.8366215206209815 1.452901870500871 -0.9999999999999999
  endloop
endfacet
facet normal 0.0 -1.0 0.0
  outer loop
    vertex -22.43662152062099 1.452901870500871 -0.9999999999999999
    vertex -3.8366215206209815 1.452901870500871 -6.261583435191781e-31
    vertex -22.43662152062099 1.452901870500871 3.9999999999999996
  endloop
endfacet
facet normal 0.0 -1.0 0.0
  outer loop
    vertex -22.43662152062099 1.452901870500871 3.9999999999999996
    vertex -3.8366215206209815 1.452901870500871 -6.261583435191781e-31
    vertex -3.8366215206209815 1.452901870500871 3.9999999999999996
  endloop
endfacet
facet normal 0.0 0.0 -1.0
  outer loop
    vertex -3.8366215206209815 1.452901870500871 3.9999999999999996
    vertex -22.43662152062099 -0.04709812949912845 3.9999999999999996
    vertex -22.43662152062099 1.452901870500871 3.9999999999999996
  endloop
endfacet
facet normal 0.0 0.0 -1.0
  outer loop
    vertex -22.43662152062099 -0.04709812949912845 3.9999999999999996
    vertex -3.8366215206209815 1.452901870500871 3.9999999999999996
    vertex -3.8366215206209815 -0.04709812949912845 3.9999999999999996
  endloop
endfacet
facet normal -0.9999954405775873 3.407677427442606e-05 0.003019546788958426
  outer loop
    vertex -3.8366215206209815 1.452901870500871 3.9999999999999996
    vertex -3.8366215206209815 -0.04709812949912845 -6.261583435191781e-31
    vertex -3.8366215206209815 -0.04709812949912845 3.9999999999999996
  endloop
endfacet
facet normal -0.9999954405775873 3.407677427442606e-05 0.003019546788958426
  outer loop
    vertex -3.8366215206209815 -0.04709812949912845 -6.261583435191781e-31
    vertex -3.8366215206209815 1.452901870500871 3.9999999999999996
    vertex -3.8366215206209815 1.452901870500871 -6.261583435191781e-31
  endloop
endfacet
facet normal -0.0 1.0 -0.0
  outer loop
    vertex -22.43662152062099 -0.04709812949912845 3.9999999999999996
    vertex -3.8366215206209815 -0.04709812949912845 -0.9999999999999999
    vertex -22.43662152062099 -0.04709812949912845 -0.9999999999999999
  endloop
endfacet
facet normal -0.0 1.0 -0.0
  outer loop
    vertex -3.8366215206209815 -0.04709812949912845 -0.9999999999999999
    vertex -22.43662152062099 -0.04709812949912845 3.9999999999999996
    vertex -3.8366215206209815 -0.04709812949912845 -6.261583435191781e-31
  endloop
endfacet
facet normal -0.0 1.0 -0.0
  outer loop
    vertex -3.8366215206209815 -0.04709812949912845 -6.261583435191781e-31
    vertex -22.43662152062099 -0.04709812949912845 3.9999999999999996
    vertex -3.8366215206209815 -0.04709812949912845 3.9999999999999996
  endloop
endfacet
facet normal 0.9238795325112867 -0.38268343236508995 -6.261532076310195e-17
  outer loop
    vertex -2.9170062783503172 -0.44709812949912825 -0.9999999999999999
    vertex -2.8570660248475392 -0.3023895565606413 4.999999999999999
    vertex -2.917006278350317 -0.4470981294991286 4.999999999999999
  endloop
endfacet
facet normal 0.9238795325112867 -0.38268343236508995 -6.261532076310195e-17
  outer loop
    vertex -2.8570660248475392 -0.3023895565606413 4.999999999999999
    vertex -2.9170062783503172 -0.44709812949912825 -0.9999999999999999
    vertex -2.8570660248475392 -0.30238955656064087 -0.9999999999999999
  endloop
endfacet
facet normal 0.7933533402912352 -0.6087614290087209 -6.485357703932479e-17
  outer loop
    vertex -3.0123574519090517 -0.5713621982110567 -0.9999999999999999
    vertex -2.917006278350317 -0.4470981294991286 4.999999999999999
    vertex -3.012357451909052 -0.5713621982110574 4.999999999999999
  endloop
endfacet
facet normal 0.7933533402912352 -0.6087614290087209 -6.485357703932479e-17
  outer loop
    vertex -2.917006278350317 -0.4470981294991286 4.999999999999999
    vertex -3.0123574519090517 -0.5713621982110567 -0.9999999999999999
    vertex -2.9170062783503172 -0.44709812949912825 -0.9999999999999999
  endloop
endfacet
facet normal 0.6087614290087199 -0.7933533402912359 -4.8427930040390377e-17
  outer loop
    vertex -3.012357451909052 -0.5713621982110574 4.999999999999999
    vertex -3.13662152062098 -0.6667133717697913 -0.9999999999999999
    vertex -3.0123574519090517 -0.5713621982110567 -0.9999999999999999
  endloop
endfacet
facet normal 0.6087614290087199 -0.7933533402912359 -4.8427930040390377e-17
  outer loop
    vertex -3.13662152062098 -0.6667133717697913 -0.9999999999999999
    vertex -3.012357451909052 -0.5713621982110574 4.999999999999999
    vertex -3.1366215206209804 -0.6667133717697917 4.999999999999999
  endloop
endfacet
facet normal 0.9999999968963968 7.309713222222589e-05 -2.9394143880699554e-05
  outer loop
    vertex -2.8570660248475392 -0.30238955656064087 -0.9999999999999999
    vertex -2.857066024847539 1.7081932975623824 4.999999999999999
    vertex -2.8570660248475392 -0.3023895565606413 4.999999999999999
  endloop
endfacet
facet normal 0.9999999968963968 7.309713222222589e-05 -2.9394143880699554e-05
  outer loop
    vertex -2.857066024847539 1.7081932975623824 4.999999999999999
    vertex -2.8570660248475392 -0.30238955656064087 -0.9999999999999999
    vertex -2.8573599605301405 1.7081145377336011 -0.9999999999999999
  endloop
endfacet
facet normal 0.9238795308293897 0.38268343166842383 -6.0340248418264077e-05
  outer loop
    vertex -2.9172698138737316 1.8527497181954837 -0.9999999999999999
    vertex -2.857066024847539 1.7081932975623824 4.999999999999999
    vertex -2.8573599605301405 1.7081145377336011 -0.9999999999999999
  endloop
endfacet
facet normal 0.9238795308293897 0.38268343166842383 -6.0340248418264077e-05
  outer loop
    vertex -2.857066024847539 1.7081932975623824 4.999999999999999
    vertex -2.9172698138737316 1.8527497181954837 -0.9999999999999999
    vertex -2.917006278350317 1.8529018705008697 4.999999999999999
  endloop
endfacet
facet normal 0.793353338846958 0.6087614279004858 -6.034024841819204e-05
  outer loop
    vertex -3.012572627762873 1.9769507633589762 -0.9999999999999999
    vertex -2.917006278350317 1.8529018705008697 4.999999999999999
    vertex -2.9172698138737316 1.8527497181954837 -0.9999999999999999
  endloop
endfacet
facet normal 0.793353338846958 0.6087614279004858 -6.034024841819204e-05
  outer loop
    vertex -2.917006278350317 1.8529018705008697 4.999999999999999
    vertex -3.012572627762873 1.9769507633589762 -0.9999999999999999
    vertex -3.0123574519090517 1.9771659392127983 4.999999999999999
  endloop
endfacet
facet normal 0.6087614279004864 0.7933533388469576 -6.034024841811166e-05
  outer loop
    vertex -3.1367736729263647 2.072253577248117 -3.241081035770401e-31
    vertex -3.012572627762873 1.9769507633589762 -0.9999999999999999
    vertex -3.1367736729263647 2.072253577248117 -0.9999999999999999
  endloop
endfacet
facet normal 0.6087614279004864 0.7933533388469576 -6.034024841811166e-05
  outer loop
    vertex -3.012572627762873 1.9769507633589762 -0.9999999999999999
    vertex -3.1367736729263647 2.072253577248117 -3.241081035770401e-31
    vertex -3.0123574519090517 1.9771659392127983 4.999999999999999
  endloop
endfacet
facet normal 0.6087614279004864 0.7933533388469576 -6.034024841811166e-05
  outer loop
    vertex -3.0123574519090517 1.9771659392127983 4.999999999999999
    vertex -3.1367736729263647 2.072253577248117 -3.241081035770401e-31
    vertex -3.1366215206209804 2.072517112771533 4.999999999999999
  endloop
endfacet
facet normal 0.2436689644004827 0.9698579137399226 -0.0010309917755311295
  outer loop
    vertex -3.436627115854996 2.1425747004887277 -1.6395639473273078e-31
    vertex -3.1366215206209804 2.072517112771533 4.999999999999999
    vertex -3.1367736729263647 2.072253577248117 -3.241081035770401e-31
  endloop
endfacet
facet normal 0.2436689644004827 0.9698579137399226 -0.0010309917755311295
  outer loop
    vertex -3.1366215206209804 2.072517112771533 4.999999999999999
    vertex -3.436627115854996 2.1425747004887277 -1.6395639473273078e-31
    vertex -3.4366215206209807 2.152901870500869 4.999999999999999
  endloop
endfacet
facet normal 4.277084679653501e-05 3.7385561273299466e-05 0.9999999983864873
  outer loop
    vertex -12.63588213795873 -0.7418864945530868 5.000717042065798
    vertex -11.68662629941605 0.20290187050086986 5.00002930413771
    vertex -12.636123454559126 0.2029021026343913 5.000497776169986
  endloop
endfacet
facet normal 4.277084679653501e-05 3.7385561273299466e-05 0.9999999983864873
  outer loop
    vertex -11.68662629941605 0.20290187050086986 5.00002930413771
    vertex -12.63588213795873 -0.7418864945530868 5.000717042065798
    vertex -3.4366613242128166 -0.7371878944677243 4.999999999999999
  endloop
endfacet
facet normal 4.277084679653501e-05 3.7385561273299466e-05 0.9999999983864873
  outer loop
    vertex -11.68662629941605 0.20290187050086986 5.00002930413771
    vertex -3.4366613242128166 -0.7371878944677243 4.999999999999999
    vertex -11.68662629941605 1.2029019904758296 5.000058608275421
  endloop
endfacet
facet normal 4.277084679653501e-05 3.7385561273299466e-05 0.9999999983864873
  outer loop
    vertex -11.68662629941605 1.2029019904758296 5.000058608275421
    vertex -12.636621520620983 2.1529018705008687 4.999999999999999
    vertex -12.63662585997864 1.2029038609685576 5.000972351885787
  endloop
endfacet
facet normal 4.277084679653501e-05 3.7385561273299466e-05 0.9999999983864873
  outer loop
    vertex -12.636621520620983 2.1529018705008687 4.999999999999999
    vertex -11.68662629941605 1.2029019904758296 5.000058608275421
    vertex -3.4366215206209807 2.152901870500869 4.999999999999999
  endloop
endfacet
facet normal 4.277084679653501e-05 3.7385561273299466e-05 0.9999999983864873
  outer loop
    vertex -3.4366215206209807 2.152901870500869 4.999999999999999
    vertex -11.68662629941605 1.2029019904758296 5.000058608275421
    vertex -3.4366613242128166 -0.7371878944677243 4.999999999999999
  endloop
endfacet
facet normal 4.277084679653501e-05 3.7385561273299466e-05 0.9999999983864873
  outer loop
    vertex -3.4366215206209807 2.152901870500869 4.999999999999999
    vertex -3.4366613242128166 -0.7371878944677243 4.999999999999999
    vertex -3.1366215206209804 -0.6667133717697917 4.999999999999999
  endloop
endfacet
facet normal 4.277084679653501e-05 3.7385561273299466e-05 0.9999999983864873
  outer loop
    vertex -3.4366215206209807 2.152901870500869 4.999999999999999
    vertex -3.1366215206209804 -0.6667133717697917 4.999999999999999
    vertex -3.1366215206209804 2.072517112771533 4.999999999999999
  endloop
endfacet
facet normal 4.277084679653501e-05 3.7385561273299466e-05 0.9999999983864873
  outer loop
    vertex -3.1366215206209804 2.072517112771533 4.999999999999999
    vertex -3.1366215206209804 -0.6667133717697917 4.999999999999999
    vertex -3.012357451909052 -0.5713621982110574 4.999999999999999
  endloop
endfacet
facet normal 4.277084679653501e-05 3.7385561273299466e-05 0.9999999983864873
  outer loop
    vertex -3.1366215206209804 2.072517112771533 4.999999999999999
    vertex -3.012357451909052 -0.5713621982110574 4.999999999999999
    vertex -3.0123574519090517 1.9771659392127983 4.999999999999999
  endloop
endfacet
facet normal 4.277084679653501e-05 3.7385561273299466e-05 0.9999999983864873
  outer loop
    vertex -3.0123574519090517 1.9771659392127983 4.999999999999999
    vertex -3.012357451909052 -0.5713621982110574 4.999999999999999
    vertex -2.917006278350317 -0.4470981294991286 4.999999999999999
  endloop
endfacet
facet normal 4.277084679653501e-05 3.7385561273299466e-05 0.9999999983864873
  outer loop
    vertex -3.0123574519090517 1.9771659392127983 4.999999999999999
    vertex -2.917006278350317 -0.4470981294991286 4.999999999999999
    vertex -2.917006278350317 1.8529018705008697 4.999999999999999
  endloop
endfacet
facet normal 4.277084679653501e-05 3.7385561273299466e-05 0.9999999983864873
  outer loop
    vertex -2.917006278350317 1.8529018705008697 4.999999999999999
    vertex -2.917006278350317 -0.4470981294991286 4.999999999999999
    vertex -2.8570660248475392 -0.3023895565606413 4.999999999999999
  endloop
endfacet
facet normal 4.277084679653501e-05 3.7385561273299466e-05 0.9999999983864873
  outer loop
    vertex -2.917006278350317 1.8529018705008697 4.999999999999999
    vertex -2.8570660248475392 -0.3023895565606413 4.999999999999999
    vertex -2.857066024847539 1.7081932975623824 4.999999999999999
  endloop
endfacet
facet normal 4.567754471669033e-06 0.9999979047582277 -0.0020470608907044332
  outer loop
    vertex -22.836621520620987 2.152901870500868 4.999999999999999
    vertex -3.436627115854996 2.1425747004887277 -1.6395639473273078e-31
    vertex -22.836611231588083 2.14275838869356 -3.1307917175958904e-31
  endloop
endfacet
facet normal 4.567754471669033e-06 0.9999979047582277 -0.0020470608907044332
  outer loop
    vertex -3.436627115854996 2.1425747004887277 -1.6395639473273078e-31
    vertex -22.836621520620987 2.152901870500868 4.999999999999999
    vertex -3.4366215206209807 2.152901870500869 4.999999999999999
  endloop
endfacet
facet normal 4.567754471669033e-06 0.9999979047582277 -0.0020470608907044332
  outer loop
    vertex -3.4366215206209807 2.152901870500869 4.999999999999999
    vertex -22.836621520620987 2.152901870500868 4.999999999999999
    vertex -13.636621520620983 2.1529018705008687 4.999999999999999
  endloop
endfacet
facet normal 4.567754471669033e-06 0.9999979047582277 -0.0020470608907044332
  outer loop
    vertex -3.4366215206209807 2.152901870500869 4.999999999999999
    vertex -13.636621520620983 2.1529018705008687 4.999999999999999
    vertex -12.636621520620983 2.1529018705008687 4.999999999999999
  endloop
endfacet
facet normal 4.567754471669032e-06 0.9999979047582277 -0.0020470608907044332
  outer loop
    vertex -22.836621520620987 2.152901870500868 4.999999999999999
    vertex -3.436627115854996 2.1425747004887277 -1.6395639473273078e-31
    vertex -22.836611231588083 2.14275838869356 -3.1307917175958904e-31
  endloop
endfacet
facet normal 4.567754471669032e-06 0.9999979047582277 -0.0020470608907044332
  outer loop
    vertex -3.436627115854996 2.1425747004887277 -1.6395639473273078e-31
    vertex -22.836621520620987 2.152901870500868 4.999999999999999
    vertex -3.4366215206209807 2.152901870500869 4.999999999999999
  endloop
endfacet
facet normal 4.567754471669032e-06 0.9999979047582277 -0.0020470608907044332
  outer loop
    vertex -3.4366215206209807 2.152901870500869 4.999999999999999
    vertex -22.836621520620987 2.152901870500868 4.999999999999999
    vertex -13.636621520620983 2.1529018705008687 4.999999999999999
  endloop
endfacet
facet normal 4.567754471669032e-06 0.9999979047582277 -0.0020470608907044332
  outer loop
    vertex -3.4366215206209807 2.152901870500869 4.999999999999999
    vertex -13.636621520620983 2.1529018705008687 4.999999999999999
    vertex -12.636621520620983 2.1529018705008687 4.999999999999999
  endloop
endfacet
facet normal 0.00025541829488545686 -0.9999994763163251 0.0009910240008141444
  outer loop
    vertex -3.4366613242128166 -0.7371878944677243 4.999999999999999
    vertex -22.836621520620987 -0.7470981294991288 -0.9999999999999999
    vertex -3.43662152062098 -0.747098129499128 -0.9999999999999999
  endloop
endfacet
facet normal 0.00025541829488545686 -0.9999994763163251 0.0009910240008141444
  outer loop
    vertex -22.836621520620987 -0.7470981294991288 -0.9999999999999999
    vertex -3.4366613242128166 -0.7371878944677243 4.999999999999999
    vertex -22.836621520620987 -0.7470981294991283 4.999999999999999
  endloop
endfacet
facet normal 0.00025541829488545686 -0.9999994763163251 0.0009910240008141444
  outer loop
    vertex -22.836621520620987 -0.7470981294991283 4.999999999999999
    vertex -3.4366613242128166 -0.7371878944677243 4.999999999999999
    vertex -12.63588213795873 -0.7418864945530868 5.000717042065798
  endloop
endfacet
facet normal 0.00025541829488545686 -0.9999994763163251 0.0009910240008141444
  outer loop
    vertex -22.836621520620987 -0.7470981294991283 4.999999999999999
    vertex -12.63588213795873 -0.7418864945530868 5.000717042065798
    vertex -13.635881979774963 -0.7423972068242427 5.001040702160112
  endloop
endfacet
facet normal 0.00025541829488545686 -0.9999994763163251 0.0009910240008141444
  outer loop
    vertex -13.635881979774963 -0.7423972068242427 5.001040702160112
    vertex -12.63588213795873 -0.7418864945530868 5.000717042065798
    vertex -12.63598941667695 -0.7410632751663505 8.500716943608824
  endloop
endfacet
facet normal 0.00025541829488545686 -0.9999994763163251 0.0009910240008141444
  outer loop
    vertex -13.635881979774963 -0.7423972068242427 5.001040702160112
    vertex -12.63598941667695 -0.7410632751663505 8.500716943608824
    vertex -13.635989258493163 -0.7415739874375065 8.501040603703139
  endloop
endfacet
facet normal -3.37054074036312e-05 8.083113218836956e-05 0.9999999961651369
  outer loop
    vertex -23.35623676289165 -0.4470981294991284 4.999999999999999
    vertex -23.43662152062099 1.5529018705008677 4.999999999999999
    vertex -23.43662152062099 -0.14709812949912848 4.999999999999999
  endloop
endfacet
facet normal -3.37054074036312e-05 8.083113218836956e-05 0.9999999961651369
  outer loop
    vertex -23.43662152062099 1.5529018705008677 4.999999999999999
    vertex -23.35623676289165 -0.4470981294991284 4.999999999999999
    vertex -23.35623676289165 1.8529018705008673 4.999999999999999
  endloop
endfacet
facet normal -3.37054074036312e-05 8.083113218836956e-05 0.9999999961651369
  outer loop
    vertex -23.35623676289165 1.8529018705008673 4.999999999999999
    vertex -23.35623676289165 -0.4470981294991284 4.999999999999999
    vertex -23.26088558933292 -0.5713621982110569 4.999999999999999
  endloop
endfacet
facet normal -3.37054074036312e-05 8.083113218836956e-05 0.9999999961651369
  outer loop
    vertex -23.35623676289165 1.8529018705008673 4.999999999999999
    vertex -23.26088558933292 -0.5713621982110569 4.999999999999999
    vertex -23.26088558933292 1.9771659392127963 4.999999999999999
  endloop
endfacet
facet normal -3.37054074036312e-05 8.083113218836956e-05 0.9999999961651369
  outer loop
    vertex -23.26088558933292 1.9771659392127963 4.999999999999999
    vertex -23.26088558933292 -0.5713621982110569 4.999999999999999
    vertex -23.136621520620988 -0.6667133717697915 4.999999999999999
  endloop
endfacet
facet normal -3.37054074036312e-05 8.083113218836956e-05 0.9999999961651369
  outer loop
    vertex -23.26088558933292 1.9771659392127963 4.999999999999999
    vertex -23.136621520620988 -0.6667133717697915 4.999999999999999
    vertex -23.136621520620988 2.072517112771531 4.999999999999999
  endloop
endfacet
facet normal -3.37054074036312e-05 8.083113218836956e-05 0.9999999961651369
  outer loop
    vertex -23.136621520620988 2.072517112771531 4.999999999999999
    vertex -23.136621520620988 -0.6667133717697915 4.999999999999999
    vertex -22.836621520620987 -0.7470981294991283 4.999999999999999
  endloop
endfacet
facet normal -3.37054074036312e-05 8.083113218836956e-05 0.9999999961651369
  outer loop
    vertex -23.136621520620988 2.072517112771531 4.999999999999999
    vertex -22.836621520620987 -0.7470981294991283 4.999999999999999
    vertex -22.836621520620987 2.152901870500868 4.999999999999999
  endloop
endfacet
facet normal -3.37054074036312e-05 8.083113218836956e-05 0.9999999961651369
  outer loop
    vertex -22.836621520620987 2.152901870500868 4.999999999999999
    vertex -22.836621520620987 -0.7470981294991283 4.999999999999999
    vertex -13.635881979774963 -0.7423972068242427 5.001040702160112
  endloop
endfacet
facet normal -3.37054074036312e-05 8.083113218836956e-05 0.9999999961651369
  outer loop
    vertex -22.836621520620987 2.152901870500868 4.999999999999999
    vertex -13.635881979774963 -0.7423972068242427 5.001040702160112
    vertex -14.586364815251585 0.20290187126376666 5.000019876867438
  endloop
endfacet
facet normal -3.37054074036312e-05 8.083113218836956e-05 0.9999999961651369
  outer loop
    vertex -22.836621520620987 2.152901870500868 4.999999999999999
    vertex -14.586364815251585 0.20290187126376666 5.000019876867438
    vertex -14.586364815260216 1.202901870146245 4.999990756361183
  endloop
endfacet
facet normal -3.37054074036312e-05 8.083113218836956e-05 0.9999999961651369
  outer loop
    vertex -14.586364815251585 0.20290187126376666 5.000019876867438
    vertex -13.635881979774963 -0.7423972068242427 5.001040702160112
    vertex -13.636364937696587 0.20290188977627568 5.000502210247351
  endloop
endfacet
facet normal -3.37054074036312e-05 8.083113218836956e-05 0.9999999961651369
  outer loop
    vertex -14.586364815260216 1.202901870146245 4.999990756361183
    vertex -13.636621520620983 2.1529018705008687 4.999999999999999
    vertex -22.836621520620987 2.152901870500868 4.999999999999999
  endloop
endfacet
facet normal -3.37054074036312e-05 8.083113218836956e-05 0.9999999961651369
  outer loop
    vertex -13.636621520620983 2.1529018705008687 4.999999999999999
    vertex -14.586364815260216 1.202901870146245 4.999990756361183
    vertex -13.636378873055271 1.2029019890641584 5.000230746329625
  endloop
endfacet
facet normal -3.065106234202337e-05 0.00023520553906730633 0.9999999718694331
  outer loop
    vertex -14.586472093969785 0.20372509065050226 8.500019778410461
    vertex -13.636486151773472 1.2037252084508856 8.50023064787265
    vertex -14.586472093978417 1.2037250895329723 8.499990657904208
  endloop
endfacet
facet normal -3.065106234202337e-05 0.00023520553906730633 0.9999999718694331
  outer loop
    vertex -13.636486151773472 1.2037252084508856 8.50023064787265
    vertex -14.586472093969785 0.20372509065050226 8.500019778410461
    vertex -13.636472216414788 0.20372510916301126 8.500502111790375
  endloop
endfacet
facet normal -3.065106234202337e-05 0.00023520553906730633 0.9999999718694331
  outer loop
    vertex -13.636486151773472 1.2037252084508856 8.50023064787265
    vertex -12.636728799339204 2.1537250898876135 8.499999901543024
    vertex -13.636728799339183 2.1537250898876135 8.499999901543024
  endloop
endfacet
facet normal -3.065106234202337e-05 0.00023520553906730633 0.9999999718694331
  outer loop
    vertex -12.636728799339204 2.1537250898876135 8.499999901543024
    vertex -13.636486151773472 1.2037252084508856 8.50023064787265
    vertex -13.636472216414788 0.20372510916301126 8.500502111790375
  endloop
endfacet
facet normal -3.065106234202337e-05 0.00023520553906730633 0.9999999718694331
  outer loop
    vertex -12.636728799339204 2.1537250898876135 8.499999901543024
    vertex -13.636472216414788 0.20372510916301126 8.500502111790375
    vertex -13.635989258493163 -0.7415739874375065 8.501040603703139
  endloop
endfacet
facet normal -3.065106234202337e-05 0.00023520553906730633 0.9999999718694331
  outer loop
    vertex -12.636728799339204 2.1537250898876135 8.499999901543024
    vertex -13.635989258493163 -0.7415739874375065 8.501040603703139
    vertex -12.63673313869686 1.2037270803552849 8.500972253428811
  endloop
endfacet
facet normal -3.065106234202337e-05 0.00023520553906730633 0.9999999718694331
  outer loop
    vertex -12.63598941667695 -0.7410632751663505 8.500716943608824
    vertex -12.63673313869686 1.2037270803552849 8.500972253428811
    vertex -13.635989258493163 -0.7415739874375065 8.501040603703139
  endloop
endfacet
facet normal -3.065106234202337e-05 0.00023520553906730633 0.9999999718694331
  outer loop
    vertex -12.63673313869686 1.2037270803552849 8.500972253428811
    vertex -12.63598941667695 -0.7410632751663505 8.500716943608824
    vertex -12.636230733277346 0.20372532202112686 8.500497677713012
  endloop
endfacet
facet normal -3.065106234202337e-05 0.00023520553906730633 0.9999999718694331
  outer loop
    vertex -12.636230733277346 0.20372532202112686 8.500497677713012
    vertex -11.68673357813427 1.2037252098625568 8.500058509818446
    vertex -12.63673313869686 1.2037270803552849 8.500972253428811
  endloop
endfacet
facet normal -3.065106234202337e-05 0.00023520553906730633 0.9999999718694331
  outer loop
    vertex -11.68673357813427 1.2037252098625568 8.500058509818446
    vertex -12.636230733277346 0.20372532202112686 8.500497677713012
    vertex -11.68673357813427 0.20372508988760543 8.500029205680734
  endloop
endfacet
facet normal 0.0 0.9999999723391768 -0.00023520553917779263
  outer loop
    vertex -13.636728799339183 2.1537250898876135 8.499999901543024
    vertex -12.636621520620983 2.1529018705008687 4.999999999999999
    vertex -13.636621520620983 2.1529018705008687 4.999999999999999
  endloop
endfacet
facet normal 0.0 0.9999999723391768 -0.00023520553917779263
  outer loop
    vertex -12.636621520620983 2.1529018705008687 4.999999999999999
    vertex -13.636728799339183 2.1537250898876135 8.499999901543024
    vertex -12.636728799339204 2.1537250898876135 8.499999901543024
  endloop
endfacet
facet normal -0.999999966910889 -0.000255425943919605 -3.0590984591517316e-05
  outer loop
    vertex -13.636486151773472 1.2037252084508856 8.50023064787265
    vertex -13.636621520620983 2.1529018705008687 4.999999999999999
    vertex -13.636378873055271 1.2029019890641584 5.000230746329625
  endloop
endfacet
facet normal -0.999999966910889 -0.000255425943919605 -3.0590984591517316e-05
  outer loop
    vertex -13.636621520620983 2.1529018705008687 4.999999999999999
    vertex -13.636486151773472 1.2037252084508856 8.50023064787265
    vertex -13.636728799339183 2.1537250898876135 8.499999901543024
  endloop
endfacet
facet normal -6.575985683246272e-08 0.9999999723391741 -0.00023520554119340158
  outer loop
    vertex -14.586472093978417 1.2037250895329723 8.499990657904208
    vertex -13.636378873055271 1.2029019890641584 5.000230746329625
    vertex -14.586364815260216 1.202901870146245 4.999990756361183
  endloop
endfacet
facet normal -6.575985683246272e-08 0.9999999723391741 -0.00023520554119340158
  outer loop
    vertex -13.636378873055271 1.2029019890641584 5.000230746329625
    vertex -14.586472093978417 1.2037250895329723 8.499990657904208
    vertex -13.636486151773472 1.2037252084508856 8.50023064787265
  endloop
endfacet
facet normal -0.9999999995302562 -9.012063895816953e-10 -3.065106297788827e-05
  outer loop
    vertex -14.586472093969785 0.20372509065050226 8.500019778410461
    vertex -14.586364815260216 1.202901870146245 4.999990756361183
    vertex -14.586364815251585 0.20290187126376666 5.000019876867438
  endloop
endfacet
facet normal -0.9999999995302562 -9.012063895816953e-10 -3.065106297788827e-05
  outer loop
    vertex -14.586364815260216 1.202901870146245 4.999990756361183
    vertex -14.586472093969785 0.20372509065050226 8.500019778410461
    vertex -14.586472093978417 1.2037250895329723 8.499990657904208
  endloop
endfacet
facet normal -9.993156310918306e-08 -0.9999999723391725 0.00023520553611478296
  outer loop
    vertex -13.636364937696587 0.20290188977627568 5.000502210247351
    vertex -14.586472093969785 0.20372509065050226 8.500019778410461
    vertex -14.586364815251585 0.20290187126376666 5.000019876867438
  endloop
endfacet
facet normal -9.993156310918306e-08 -0.9999999723391725 0.00023520553611478296
  outer loop
    vertex -14.586472093969785 0.20372509065050226 8.500019778410461
    vertex -13.636364937696587 0.20290188977627568 5.000502210247351
    vertex -13.636472216414788 0.20372510916301126 8.500502111790375
  endloop
endfacet
facet normal -0.9999998690131741 -0.0005109222051885321 -3.053088745329635e-05
  outer loop
    vertex -13.635989258493163 -0.7415739874375065 8.501040603703139
    vertex -13.636364937696587 0.20290188977627568 5.000502210247351
    vertex -13.635881979774963 -0.7423972068242427 5.001040702160112
  endloop
endfacet
facet normal -0.9999998690131741 -0.0005109222051885321 -3.053088745329635e-05
  outer loop
    vertex -13.636364937696587 0.20290188977627568 5.000502210247351
    vertex -13.635989258493163 -0.7415739874375065 8.501040603703139
    vertex -13.636472216414788 0.20372510916301126 8.500502111790375
  endloop
endfacet
facet normal 0.9999999669109483 0.0002554257118362728 3.059098464610643e-05
  outer loop
    vertex -12.636123454559126 0.2029021026343913 5.000497776169986
    vertex -12.63598941667695 -0.7410632751663505 8.500716943608824
    vertex -12.63588213795873 -0.7418864945530868 5.000717042065798
  endloop
endfacet
facet normal 0.9999999669109483 0.0002554257118362728 3.059098464610643e-05
  outer loop
    vertex -12.63598941667695 -0.7410632751663505 8.500716943608824
    vertex -12.636123454559126 0.2029021026343913 5.000497776169986
    vertex -12.636230733277346 0.20372532202112686 8.500497677713012
  endloop
endfacet
facet normal -1.2843250687946563e-07 -0.9999999723391695 0.00023520553524119807
  outer loop
    vertex -11.68673357813427 0.20372508988760543 8.500029205680734
    vertex -12.636123454559126 0.2029021026343913 5.000497776169986
    vertex -11.68662629941605 0.20290187050086986 5.00002930413771
  endloop
endfacet
facet normal -1.2843250687946563e-07 -0.9999999723391695 0.00023520553524119807
  outer loop
    vertex -12.636123454559126 0.2029021026343913 5.000497776169986
    vertex -11.68673357813427 0.20372508988760543 8.500029205680734
    vertex -12.636230733277346 0.20372532202112686 8.500497677713012
  endloop
endfacet
facet normal 0.9999999995302562 -8.9820287513349e-10 3.0651063401119304e-05
  outer loop
    vertex -11.68662629941605 1.2029019904758296 5.000058608275421
    vertex -11.68673357813427 0.20372508988760543 8.500029205680734
    vertex -11.68662629941605 0.20290187050086986 5.00002930413771
  endloop
endfacet
facet normal 0.9999999995302562 -8.9820287513349e-10 3.0651063401119304e-05
  outer loop
    vertex -11.68673357813427 0.20372508988760543 8.500029205680734
    vertex -11.68662629941605 1.2029019904758296 5.000058608275421
    vertex -11.68673357813427 1.2037252098625568 8.500058509818446
  endloop
endfacet
facet normal 1.7427115076820256e-06 0.999999972337671 -0.0002352054857614779
  outer loop
    vertex -12.63662585997864 1.2029038609685576 5.000972351885787
    vertex -11.68673357813427 1.2037252098625568 8.500058509818446
    vertex -11.68662629941605 1.2029019904758296 5.000058608275421
  endloop
endfacet
facet normal 1.7427115076820256e-06 0.999999972337671 -0.0002352054857614779
  outer loop
    vertex -11.68673357813427 1.2037252098625568 8.500058509818446
    vertex -12.63662585997864 1.2029038609685576 5.000972351885787
    vertex -12.63673313869686 1.2037270803552849 8.500972253428811
  endloop
endfacet
facet normal 0.9999999995199341 -4.536381081785495e-06 3.065213017152839e-05
  outer loop
    vertex -12.636621520620983 2.1529018705008687 4.999999999999999
    vertex -12.63673313869686 1.2037270803552849 8.500972253428811
    vertex -12.63662585997864 1.2029038609685576 5.000972351885787
  endloop
endfacet
facet normal 0.9999999995199341 -4.536381081785495e-06 3.065213017152839e-05
  outer loop
    vertex -12.63673313869686 1.2037270803552849 8.500972253428811
    vertex -12.636621520620983 2.1529018705008687 4.999999999999999
    vertex -12.636728799339204 2.1537250898876135 8.499999901543024
  endloop
endfacet
facet normal 0.24382628259673508 -0.9698184460560687 0.0009620833900037544
  outer loop
    vertex -3.1366215206209804 -0.6667133717697917 4.999999999999999
    vertex -3.43662152062098 -0.747098129499128 -0.9999999999999999
    vertex -3.13662152062098 -0.6667133717697913 -0.9999999999999999
  endloop
endfacet
facet normal 0.24382628259673508 -0.9698184460560687 0.0009620833900037544
  outer loop
    vertex -3.43662152062098 -0.747098129499128 -0.9999999999999999
    vertex -3.1366215206209804 -0.6667133717697917 4.999999999999999
    vertex -3.4366613242128166 -0.7371878944677243 4.999999999999999
  endloop
endfacet
facet normal 1.2765348016379067e-32 -4.667828041132469e-32 -1.0
  outer loop
    vertex -3.436627115854996 2.1425747004887277 -0.9999999999999999
    vertex -22.43662152062099 1.452901870500871 -0.9999999999999999
    vertex -22.836611231588083 2.14275838869356 -0.9999999999999999
  endloop
endfacet
facet normal 1.2765348016379067e-32 -4.667828041132469e-32 -1.0
  outer loop
    vertex -22.43662152062099 1.452901870500871 -0.9999999999999999
    vertex -3.436627115854996 2.1425747004887277 -0.9999999999999999
    vertex -3.8366215206209815 1.452901870500871 -0.9999999999999999
  endloop
endfacet
facet normal 1.2765348016379067e-32 -4.667828041132469e-32 -1.0
  outer loop
    vertex -3.8366215206209815 1.452901870500871 -0.9999999999999999
    vertex -3.436627115854996 2.1425747004887277 -0.9999999999999999
    vertex -3.8366215206209815 -0.04709812949912845 -0.9999999999999999
  endloop
endfacet
facet normal 1.2765348016379067e-32 -4.667828041132469e-32 -1.0
  outer loop
    vertex -23.356236762891655 1.8529018705008697 -0.9999999999999999
    vertex -23.43662152062099 -0.14709812949912826 -0.9999999999999999
    vertex -23.436621520620992 1.5529018705008686 -0.9999999999999999
  endloop
endfacet
facet normal 1.2765348016379067e-32 -4.667828041132469e-32 -1.0
  outer loop
    vertex -23.43662152062099 -0.14709812949912826 -0.9999999999999999
    vertex -23.356236762891655 1.8529018705008697 -0.9999999999999999
    vertex -23.35623676289165 -0.4470981294991279 -0.9999999999999999
  endloop
endfacet
facet normal 1.2765348016379067e-32 -4.667828041132469e-32 -1.0
  outer loop
    vertex -23.35623676289165 -0.4470981294991279 -0.9999999999999999
    vertex -23.356236762891655 1.8529018705008697 -0.9999999999999999
    vertex -23.26088558933292 1.9771659392127987 -0.9999999999999999
  endloop
endfacet
facet normal 1.2765348016379067e-32 -4.667828041132469e-32 -1.0
  outer loop
    vertex -23.35623676289165 -0.4470981294991279 -0.9999999999999999
    vertex -23.26088558933292 1.9771659392127987 -0.9999999999999999
    vertex -23.26088558933292 -0.5713621982110568 -0.9999999999999999
  endloop
endfacet
facet normal 1.2765348016379067e-32 -4.667828041132469e-32 -1.0
  outer loop
    vertex -23.26088558933292 -0.5713621982110568 -0.9999999999999999
    vertex -23.26088558933292 1.9771659392127987 -0.9999999999999999
    vertex -23.13662152062099 2.072517112771534 -0.9999999999999999
  endloop
endfacet
facet normal 1.2765348016379067e-32 -4.667828041132469e-32 -1.0
  outer loop
    vertex -23.26088558933292 -0.5713621982110568 -0.9999999999999999
    vertex -23.13662152062099 2.072517112771534 -0.9999999999999999
    vertex -23.136621520620988 -0.6667133717697914 -0.9999999999999999
  endloop
endfacet
facet normal 1.2765348016379067e-32 -4.667828041132469e-32 -1.0
  outer loop
    vertex -23.136621520620988 -0.6667133717697914 -0.9999999999999999
    vertex -23.13662152062099 2.072517112771534 -0.9999999999999999
    vertex -22.836611231588083 2.14275838869356 -0.9999999999999999
  endloop
endfacet
facet normal 1.2765348016379067e-32 -4.667828041132469e-32 -1.0
  outer loop
    vertex -23.136621520620988 -0.6667133717697914 -0.9999999999999999
    vertex -22.836611231588083 2.14275838869356 -0.9999999999999999
    vertex -22.836621520620987 -0.7470981294991288 -0.9999999999999999
  endloop
endfacet
facet normal 1.2765348016379067e-32 -4.667828041132469e-32 -1.0
  outer loop
    vertex -22.836621520620987 -0.7470981294991288 -0.9999999999999999
    vertex -22.836611231588083 2.14275838869356 -0.9999999999999999
    vertex -22.43662152062099 -0.04709812949912845 -0.9999999999999999
  endloop
endfacet
facet normal 1.2765348016379067e-32 -4.667828041132469e-32 -1.0
  outer loop
    vertex -22.836621520620987 -0.7470981294991288 -0.9999999999999999
    vertex -22.43662152062099 -0.04709812949912845 -0.9999999999999999
    vertex -3.43662152062098 -0.747098129499128 -0.9999999999999999
  endloop
endfacet
facet normal 1.2765348016379067e-32 -4.667828041132469e-32 -1.0
  outer loop
    vertex -22.43662152062099 -0.04709812949912845 -0.9999999999999999
    vertex -22.836611231588083 2.14275838869356 -0.9999999999999999
    vertex -22.43662152062099 1.452901870500871 -0.9999999999999999
  endloop
endfacet
facet normal 1.2765348016379067e-32 -4.667828041132469e-32 -1.0
  outer loop
    vertex -3.43662152062098 -0.747098129499128 -0.9999999999999999
    vertex -22.43662152062099 -0.04709812949912845 -0.9999999999999999
    vertex -3.8366215206209815 -0.04709812949912845 -0.9999999999999999
  endloop
endfacet
facet normal 1.2765348016379067e-32 -4.667828041132469e-32 -1.0
  outer loop
    vertex -3.43662152062098 -0.747098129499128 -0.9999999999999999
    vertex -3.8366215206209815 -0.04709812949912845 -0.9999999999999999
    vertex -3.436627115854996 2.1425747004887277 -0.9999999999999999
  endloop
endfacet
facet normal 1.2765348016379067e-32 -4.667828041132469e-32 -1.0
  outer loop
    vertex -3.43662152062098 -0.747098129499128 -0.9999999999999999
    vertex -3.436627115854996 2.1425747004887277 -0.9999999999999999
    vertex -3.1367736729263647 2.072253577248117 -0.9999999999999999
  endloop
endfacet
facet normal 1.2765348016379067e-32 -4.667828041132469e-32 -1.0
  outer loop
    vertex -3.43662152062098 -0.747098129499128 -0.9999999999999999
    vertex -3.1367736729263647 2.072253577248117 -0.9999999999999999
    vertex -3.13662152062098 -0.6667133717697913 -0.9999999999999999
  endloop
endfacet
facet normal 1.2765348016379067e-32 -4.667828041132469e-32 -1.0
  outer loop
    vertex -3.13662152062098 -0.6667133717697913 -0.9999999999999999
    vertex -3.1367736729263647 2.072253577248117 -0.9999999999999999
    vertex -3.012572627762873 1.9769507633589762 -0.9999999999999999
  endloop
endfacet
facet normal 1.2765348016379067e-32 -4.667828041132469e-32 -1.0
  outer loop
    vertex -3.13662152062098 -0.6667133717697913 -0.9999999999999999
    vertex -3.012572627762873 1.9769507633589762 -0.9999999999999999
    vertex -3.0123574519090517 -0.5713621982110567 -0.9999999999999999
  endloop
endfacet
facet normal 1.2765348016379067e-32 -4.667828041132469e-32 -1.0
  outer loop
    vertex -3.0123574519090517 -0.5713621982110567 -0.9999999999999999
    vertex -3.012572627762873 1.9769507633589762 -0.9999999999999999
    vertex -2.9172698138737316 1.8527497181954837 -0.9999999999999999
  endloop
endfacet
facet normal 1.2765348016379067e-32 -4.667828041132469e-32 -1.0
  outer loop
    vertex -3.0123574519090517 -0.5713621982110567 -0.9999999999999999
    vertex -2.9172698138737316 1.8527497181954837 -0.9999999999999999
    vertex -2.9170062783503172 -0.44709812949912825 -0.9999999999999999
  endloop
endfacet
facet normal 1.2765348016379067e-32 -4.667828041132469e-32 -1.0
  outer loop
    vertex -2.9170062783503172 -0.44709812949912825 -0.9999999999999999
    vertex -2.9172698138737316 1.8527497181954837 -0.9999999999999999
    vertex -2.8573599605301405 1.7081145377336011 -0.9999999999999999
  endloop
endfacet
facet normal 1.2765348016379067e-32 -4.667828041132469e-32 -1.0
  outer loop
    vertex -2.9170062783503172 -0.44709812949912825 -0.9999999999999999
    vertex -2.8573599605301405 1.7081145377336011 -0.9999999999999999
    vertex -2.8570660248475392 -0.30238955656064087 -0.9999999999999999
  endloop
endfacet
facet normal 0.22832358168907155 0.9735853029111903 -4.253065779302588e-32
  outer loop
    vertex -3.436627115854996 2.1425747004887277 -1.6395639473273078e-31
    vertex -3.1367736729263647 2.072253577248117 -0.9999999999999999
    vertex -3.436627115854996 2.1425747004887277 -0.9999999999999999
  endloop
endfacet
facet normal 0.22832358168907155 0.9735853029111903 -4.253065779302588e-32
  outer loop
    vertex -3.1367736729263647 2.072253577248117 -0.9999999999999999
    vertex -3.436627115854996 2.1425747004887277 -1.6395639473273078e-31
    vertex -3.1367736729263647 2.072253577248117 -3.241081035770401e-31
  endloop
endfacet
facet normal 9.468471918759631e-06 0.999999999955174 -4.667815954089307e-32
  outer loop
    vertex -22.836611231588083 2.14275838869356 -3.1307917175958904e-31
    vertex -3.436627115854996 2.1425747004887277 -0.9999999999999999
    vertex -22.836611231588083 2.14275838869356 -0.9999999999999999
  endloop
endfacet
facet normal 9.468471918759631e-06 0.999999999955174 -4.667815954089307e-32
  outer loop
    vertex -3.436627115854996 2.1425747004887277 -0.9999999999999999
    vertex -22.836611231588083 2.14275838869356 -3.1307917175958904e-31
    vertex -3.436627115854996 2.1425747004887277 -1.6395639473273078e-31
  endloop
endfacet
facet normal -1.0 0.0 -1.2765348016379067e-32
  outer loop
    vertex -3.8366215206209815 1.452901870500871 -6.261583435191781e-31
    vertex -3.8366215206209815 -0.04709812949912845 -0.9999999999999999
    vertex -3.8366215206209815 -0.04709812949912845 -6.261583435191781e-31
  endloop
endfacet
facet normal -1.0 0.0 -1.2765348016379067e-32
  outer loop
    vertex -3.8366215206209815 -0.04709812949912845 -0.9999999999999999
    vertex -3.8366215206209815 1.452901870500871 -6.261583435191781e-31
    vertex -3.8366215206209815 1.452901870500871 -0.9999999999999999
  endloop
endfacet
endsolid Knob metal
